<?xml version="1.0" standalone="no"?>
<!DOCTYPE svg PUBLIC "-//W3C//DTD SVG 20010904//EN"
 "http://www.w3.org/TR/2001/REC-SVG-20010904/DTD/svg10.dtd">
<svg version="1.0" xmlns="http://www.w3.org/2000/svg"
 width="130.000000pt" height="130.000000pt" viewBox="0 0 130.000000 130.000000"
 preserveAspectRatio="xMidYMid meet">

<g transform="translate(0.000000,130.000000) scale(0.100000,-0.100000)"
fill="#000000" stroke="none">
<path d="M546 1290 c-184 -33 -360 -151 -449 -301 -62 -106 -90 -205 -91 -334
-1 -127 21 -216 81 -324 47 -84 161 -198 243 -244 200 -110 430 -111 635 -3
78 41 200 163 247 246 112 202 113 437 2 637 -105 189 -316 319 -534 328 -47
2 -107 0 -134 -5z m466 -365 c11 -43 -12 -273 -29 -291 -21 -21 -53 0 -54 34
0 15 -4 76 -8 136 -11 135 -4 158 48 154 29 -3 36 -8 43 -33z m-638 -101 c24
-9 21 -71 -4 -84 -40 -21 -88 16 -73 57 11 31 40 41 77 27z m201 -20 l11 -22
29 25 c25 22 36 25 87 21 96 -7 102 -19 106 -189 4 -144 -2 -169 -36 -169 -8
0 -24 7 -34 17 -15 14 -18 33 -18 127 -1 76 -5 116 -14 129 -19 25 -63 21 -91
-8 -23 -22 -25 -31 -25 -129 0 -110 -9 -136 -49 -136 -37 0 -41 19 -41 185 0
89 3 165 7 169 14 14 58 1 68 -20z m-205 -139 c7 -9 14 -67 17 -154 6 -151 1
-171 -42 -171 -26 0 -39 14 -48 49 -8 31 12 250 24 274 12 21 32 22 49 2z
m636 -120 c15 -23 15 -27 0 -50 -20 -30 -49 -32 -76 -5 -24 24 -24 29 -4 58
21 30 59 29 80 -3z"/>
</g>
</svg>
