<?xml version="1.0" standalone="no"?>
<!DOCTYPE svg PUBLIC "-//W3C//DTD SVG 20010904//EN"
 "http://www.w3.org/TR/2001/REC-SVG-20010904/DTD/svg10.dtd">
<svg version="1.0" xmlns="http://www.w3.org/2000/svg"
 width="1136.000000pt" height="1136.000000pt" viewBox="0 0 1136.000000 1136.000000"
 preserveAspectRatio="xMidYMid meet">

<g transform="translate(0.000000,1136.000000) scale(0.100000,-0.100000)"
fill="#000000" stroke="none">
<path d="M5445 11354 c-795 -47 -1440 -199 -2104 -498 -916 -413 -1737 -1096
-2321 -1931 -518 -741 -853 -1608 -969 -2507 -36 -278 -45 -420 -45 -738 0
-318 9 -460 45 -738 92 -715 320 -1403 671 -2032 511 -911 1277 -1677 2188
-2188 712 -398 1460 -625 2320 -703 174 -16 726 -16 900 0 692 63 1294 218
1889 485 916 413 1737 1096 2321 1931 518 741 853 1608 969 2507 36 278 45
420 45 738 0 318 -9 460 -45 738 -141 1091 -593 2107 -1314 2953 -144 169
-430 455 -603 604 -910 785 -2003 1249 -3202 1360 -159 15 -621 27 -745 19z
m3157 -2954 c54 -15 128 -69 160 -115 14 -22 38 -74 51 -115 72 -218 70 -390
-22 -1435 -71 -809 -87 -952 -122 -1054 -57 -164 -158 -231 -304 -201 -51 10
-67 19 -107 60 -38 39 -52 64 -73 130 -14 45 -32 121 -40 169 -26 158 -127
1708 -129 1981 -1 232 0 248 22 304 59 156 161 248 312 283 60 14 192 10 252
-7z m-5479 -1145 c81 -21 132 -50 194 -108 162 -153 161 -430 -1 -593 -63 -63
-124 -98 -201 -118 -122 -32 -240 -8 -344 70 -182 137 -240 357 -144 547 82
163 302 253 496 202z m1700 -5 c46 -14 80 -33 115 -65 89 -80 126 -168 138
-332 l6 -91 48 56 c123 148 298 286 445 353 211 95 523 124 767 69 426 -94
699 -409 748 -862 6 -60 10 -443 10 -996 0 -763 -2 -906 -15 -955 -33 -128
-102 -218 -204 -265 -79 -38 -211 -43 -293 -12 -112 42 -188 124 -231 253 -21
61 -22 82 -28 897 -7 905 -6 896 -64 1070 -49 147 -126 228 -259 272 -59 19
-91 23 -196 23 -110 -1 -135 -4 -204 -28 -188 -66 -347 -220 -416 -404 -55
-146 -70 -399 -70 -1174 0 -327 -4 -578 -10 -609 -17 -87 -57 -165 -116 -220
-83 -79 -127 -95 -259 -95 -102 0 -114 2 -168 30 -102 51 -171 146 -202 278
-22 95 -22 2451 0 2546 52 220 241 328 458 261z m-1696 -1345 c84 -39 137
-141 167 -326 19 -112 19 -110 76 -924 64 -921 76 -1158 62 -1262 -21 -152
-77 -257 -175 -329 -175 -129 -462 -104 -564 49 -40 59 -67 131 -90 239 -14
66 -18 127 -17 308 0 192 10 338 67 985 85 963 88 986 139 1122 24 66 91 137
140 152 62 18 139 13 195 -14z m5487 -963 c178 -83 273 -259 246 -454 -20
-139 -97 -246 -223 -308 -175 -86 -375 -53 -513 84 -86 86 -108 145 -109 291
0 104 2 114 32 178 53 112 167 208 280 237 21 5 79 8 129 6 78 -3 102 -8 158
-34z"/>
</g>
</svg>
