<?xml version="1.0" standalone="yes"?>
<svg xmlns="http://www.w3.org/2000/svg" width="1136" height="1136">
<path style="fill:#010101; stroke:none;" d="M0 0L0 534L1 534C1 480.501 15.4282 425.066 33.3079 375C92.6366 208.871 232.929 75.0044 402 24.28C444.576 11.5063 490.35 1 535 1C522.831 -4.10657 501.253 0 488 0L379 0L0 0z"/>
<path style="fill:#e11525; stroke:none;" d="M535 0.424438C497.882 5.29749 461.581 8.33008 425 17.4753C340.065 38.7091 259.872 81.8208 194 139.286C138.764 187.471 89.6147 248.17 58.6921 315C17.7248 403.539 -6.64357 499.678 0.0895062 598C4.95496 669.049 20.4788 739.026 50.3086 804C125.316 967.378 276.625 1089.05 453 1125C517.714 1138.19 584.654 1139.52 650 1130.72C839.528 1105.19 1006.3 976.916 1085.69 804C1123.62 721.39 1139.93 629.606 1135.96 539C1125.08 290.627 943.092 74.8771 703 15.6257C661.109 5.2876 618.089 0 575 0C561.887 0 548.007 -1.2832 535 0.424438z"/>
<path style="fill:#010101; stroke:none;" d="M601 0L601 1C654.899 1 710.542 15.288 761 33.3079C927.129 92.6371 1061 232.929 1111.72 402C1124.49 444.576 1135 490.35 1135 535L1136 535L1136 0L601 0z"/>
<path style="fill:#ec5f69; stroke:none;" d="M520 1L521 2L520 1M615 1L616 2L615 1z"/>
<path style="fill:#f4a2a9; stroke:none;" d="M500 3L501 4L500 3M635 3L636 4L635 3z"/>
<path style="fill:#ec5f69; stroke:none;" d="M492 4L493 5L492 4M643 4L644 5L643 4z"/>
<path style="fill:#ffffff; stroke:none;" d="M478 6L479 7L478 6M657 6L658 7L657 6M472 7L473 8L472 7M663 7L664 8L663 7M466 8L467 9L466 8M669 8L670 9L669 8z"/>
<path style="fill:#ec5f69; stroke:none;" d="M461 9L462 10L461 9M674 9L675 10L674 9z"/>
<path style="fill:#ffffff; stroke:none;" d="M433 15L434 16L433 15M702 15L703 16L702 15z"/>
<path style="fill:#ec5f69; stroke:none;" d="M429 16L430 17L429 16M706 16L707 17L706 16M397 25L398 26L397 25M738 25L739 26L738 25M379 31L380 32L379 31M756 31L757 32L756 31z"/>
<path style="fill:#f4a2a9; stroke:none;" d="M360 38L361 39L360 38M775 38L776 39L775 38z"/>
<path style="fill:#ffffff; stroke:none;" d="M355 40L356 41L355 40M780 40L781 41L780 40z"/>
<path style="fill:#f4a2a9; stroke:none;" d="M343 45L344 46L343 45M792 45L793 46L792 45z"/>
<path style="fill:#ec5f69; stroke:none;" d="M321 55L322 56L321 55M814 55L815 56L814 55M319 56L320 57L319 56M816 56L817 57L816 56M317 57L318 58L317 57M818 57L819 58L818 57M315 58L316 59L315 58M820 58L821 59L820 58M313 59L314 60L313 59M822 59L823 60L822 59M307 62L308 63L307 62M828 62L829 63L828 62z"/>
<path style="fill:#ffffff; stroke:none;" d="M273 81L274 82L273 81M862 81L863 82L862 81z"/>
<path style="fill:#f4a2a9; stroke:none;" d="M265 86L266 87L265 86M870 86L871 87L870 86z"/>
<path style="fill:#ec5f69; stroke:none;" d="M241 102L242 103L241 102M894 102L895 103L894 102M234 107L235 108L234 107M901 107L902 108L901 107M218 119L219 120L218 119M917 119L918 120L917 119M213 123L214 124L213 123M922 123L923 124L922 123M208 127L209 128L208 127M927 127L928 128L927 127M202 132L203 133L202 132M933 132L934 133L933 132z"/>
<path style="fill:#ffffff; stroke:none;" d="M196 137L197 138L196 137M939 137L940 138L939 137z"/>
<path style="fill:#f4a2a9; stroke:none;" d="M187 145L188 146L187 145M948 145L949 146L948 145z"/>
<path style="fill:#ffffff; stroke:none;" d="M169 162L170 163L169 162M966 162L967 163L966 162z"/>
<path style="fill:#ec5f69; stroke:none;" d="M168 163L169 164L168 163M967 163L968 164L967 163M163 168L164 169L163 168M972 168L973 169L972 168z"/>
<path style="fill:#ffffff; stroke:none;" d="M162 169L163 170L162 169M973 169L974 170L973 169z"/>
<path style="fill:#f4a2a9; stroke:none;" d="M145 187L146 188L145 187M990 187L991 188L990 187z"/>
<path style="fill:#ffffff; stroke:none;" d="M137 196L138 197L137 196M998 196L999 197L998 196z"/>
<path style="fill:#ec5f69; stroke:none;" d="M132 202L133 203L132 202M1003 202L1004 203L1003 202M127 208L128 209L127 208M1008 208L1009 209L1008 208M123 213L124 214L123 213M1012 213L1013 214L1012 213M119 218L120 219L119 218M1016 218L1017 219L1016 218M107 234L108 235L107 234M1028 234L1029 235L1028 234M102 241L103 242L102 241M1033 241L1034 242L1033 241z"/>
<path style="fill:#f4a2a9; stroke:none;" d="M86 265L87 266L86 265M1049 265L1050 266L1049 265z"/>
<path style="fill:#ffffff; stroke:none;" d="M81 273L82 274L81 273M1054 273L1055 274L1054 273z"/>
<path style="fill:#ec5f69; stroke:none;" d="M839.667 294.333L840.333 294.667L839.667 294.333z"/>
<path style="fill:#f4a2a9; stroke:none;" d="M841 294L841 295L850 295L841 294z"/>
<path style="fill:#ec5f69; stroke:none;" d="M850 294L850 295L853 295L850 294M833.667 295.333L834.333 295.667L833.667 295.333z"/>
<path style="fill:#f4a2a9; stroke:none;" d="M835 295L836 296L835 295z"/>
<path style="fill:#ffffff; stroke:none;" d="M836 295.465C811.142 299.938 801.075 322.964 801.001 346C800.896 378.601 804.685 411.496 806.911 444C808.842 472.206 808.973 500.926 812.286 529C814.91 551.24 814.892 593.489 848 587.671C873.96 583.109 871.945 537.482 873.83 518C876.988 485.37 879.012 452.63 882.17 420C884.547 395.43 888.184 369.737 885.83 345C882.975 314.998 871.035 289.159 836 295.465z"/>
<path style="fill:#f4a2a9; stroke:none;" d="M856 295L857 296L856 295z"/>
<path style="fill:#ec5f69; stroke:none;" d="M857.667 295.333L858.333 295.667L857.667 295.333M830 296L831 297L830 296z"/>
<path style="fill:#f4a2a9; stroke:none;" d="M831 296L832 297L831 296M860 296L861 297L860 296z"/>
<path style="fill:#ec5f69; stroke:none;" d="M861 296L862 297L861 296M827 297L828 298L827 297z"/>
<path style="fill:#f4a2a9; stroke:none;" d="M828 297L829 298L828 297M863 297L864 298L863 297z"/>
<path style="fill:#ec5f69; stroke:none;" d="M825 298L826 299L825 298z"/>
<path style="fill:#f4a2a9; stroke:none;" d="M865 298L866 299L865 298z"/>
<path style="fill:#ec5f69; stroke:none;" d="M866 298L867 299L866 298M823 299L824 300L823 299z"/>
<path style="fill:#f4a2a9; stroke:none;" d="M867 299L868 300L867 299z"/>
<path style="fill:#ec5f69; stroke:none;" d="M821 300L822 301L821 300M869 300L870 301L869 300z"/>
<path style="fill:#f4a2a9; stroke:none;" d="M820 301L821 302L820 301M870 301L871 302L870 301z"/>
<path style="fill:#ec5f69; stroke:none;" d="M818 302L819 303L818 302z"/>
<path style="fill:#f4a2a9; stroke:none;" d="M871 302L872 303L871 302z"/>
<path style="fill:#ec5f69; stroke:none;" d="M817 303L818 304L817 303z"/>
<path style="fill:#f4a2a9; stroke:none;" d="M872 303L873 304L872 303M816 304L817 305L816 304M873 304L874 305L873 304M815 305L816 306L815 305M874 305L875 306L874 305M814 306L815 307L814 306z"/>
<path style="fill:#ec5f69; stroke:none;" d="M875 306L876 307L875 306M62 307L63 308L62 307z"/>
<path style="fill:#f4a2a9; stroke:none;" d="M813 307L814 308L813 307z"/>
<path style="fill:#ec5f69; stroke:none;" d="M1073 307L1074 308L1073 307z"/>
<path style="fill:#f4a2a9; stroke:none;" d="M812 308L813 309L812 308M876 308L877 309L876 308z"/>
<path style="fill:#ec5f69; stroke:none;" d="M811 309L812 310L811 309M877 309L878 310L877 309M810 310L811 311L810 310M878 311L879 312L878 311z"/>
<path style="fill:#f4a2a9; stroke:none;" d="M809 312L810 313L809 312z"/>
<path style="fill:#ec5f69; stroke:none;" d="M59 313L60 314L59 313M808 313L809 314L808 313M879 313L880 314L879 313M1076 313L1077 314L1076 313z"/>
<path style="fill:#f4a2a9; stroke:none;" d="M879 314L880 315L879 314z"/>
<path style="fill:#ec5f69; stroke:none;" d="M58 315L59 316L58 315M807 315L808 316L807 315M1077 315L1078 316L1077 315z"/>
<path style="fill:#f4a2a9; stroke:none;" d="M880 316L881 317L880 316z"/>
<path style="fill:#ec5f69; stroke:none;" d="M57 317L58 318L57 317z"/>
<path style="fill:#f4a2a9; stroke:none;" d="M806 317L807 318L806 317z"/>
<path style="fill:#ec5f69; stroke:none;" d="M1078 317L1079 318L1078 317M881 318L882 319L881 318M56 319L57 320L56 319M805 319L806 320L805 319z"/>
<path style="fill:#f4a2a9; stroke:none;" d="M881 319L882 320L881 319z"/>
<path style="fill:#ec5f69; stroke:none;" d="M1079 319L1080 320L1079 319M55 321L56 322L55 321M804 321L805 322L804 321M1080 321L1081 322L1080 321z"/>
<path style="fill:#f4a2a9; stroke:none;" d="M804 322L805 323L804 322z"/>
<path style="fill:#ec5f69; stroke:none;" d="M882 322L883 323L882 322z"/>
<path style="fill:#f4a2a9; stroke:none;" d="M882 323L883 324L882 323z"/>
<path style="fill:#ec5f69; stroke:none;" d="M803 324L804 325L803 324z"/>
<path style="fill:#f4a2a9; stroke:none;" d="M803 325L804 326L803 325z"/>
<path style="fill:#ec5f69; stroke:none;" d="M883.333 325.667L883.667 326.333L883.333 325.667z"/>
<path style="fill:#f4a2a9; stroke:none;" d="M883.333 327.667L883.667 328.333L883.333 327.667z"/>
<path style="fill:#ec5f69; stroke:none;" d="M802 328L803 329L802 328z"/>
<path style="fill:#f4a2a9; stroke:none;" d="M802.333 329.667L802.667 330.333L802.333 329.667z"/>
<path style="fill:#ec5f69; stroke:none;" d="M884.333 330.667L884.667 331.333L884.333 330.667z"/>
<path style="fill:#f4a2a9; stroke:none;" d="M884.333 332.667L884.667 333.333L884.333 332.667z"/>
<path style="fill:#ec5f69; stroke:none;" d="M801 333L801 336L802 336L801 333z"/>
<path style="fill:#f4a2a9; stroke:none;" d="M801 336L801 339L802 339L801 336z"/>
<path style="fill:#ec5f69; stroke:none;" d="M885 337L885 340L886 340L885 337z"/>
<path style="fill:#f4a2a9; stroke:none;" d="M885 340L885 343L886 343L885 340M45 343L46 344L45 343M1090 343L1091 344L1090 343z"/>
<path style="fill:#ec5f69; stroke:none;" d="M886 349L886 359L887 359L886 349z"/>
<path style="fill:#f4a2a9; stroke:none;" d="M801 354L801 364L802 364L801 354z"/>
<path style="fill:#ffffff; stroke:none;" d="M40 355L41 356L40 355M1095 355L1096 356L1095 355z"/>
<path style="fill:#f4a2a9; stroke:none;" d="M886 359L887 360L886 359M38 360L39 361L38 360z"/>
<path style="fill:#ec5f69; stroke:none;" d="M886 360L886 374L887 374L886 360z"/>
<path style="fill:#f4a2a9; stroke:none;" d="M1097 360L1098 361L1097 360z"/>
<path style="fill:#ec5f69; stroke:none;" d="M801 364L801 370L802 370L801 364z"/>
<path style="fill:#f4a2a9; stroke:none;" d="M802 378L802 384L803 384L802 378z"/>
<path style="fill:#ec5f69; stroke:none;" d="M31 379L32 380L31 379M1104 379L1105 380L1104 379z"/>
<path style="fill:#f4a2a9; stroke:none;" d="M885 381L885 386L886 386L885 381z"/>
<path style="fill:#ec5f69; stroke:none;" d="M802 384L802 389L803 389L802 384M885 386L885 390L886 390L885 386z"/>
<path style="fill:#f4a2a9; stroke:none;" d="M884 394L884 398L885 398L884 394M803 395L803 400L804 400L803 395z"/>
<path style="fill:#ec5f69; stroke:none;" d="M25 397L26 398L25 397M1110 397L1111 398L1110 397M884 398L884 401L885 401L884 398M803 400L803 404L804 404L803 400z"/>
<path style="fill:#f4a2a9; stroke:none;" d="M883 405L883 409L884 409L883 405z"/>
<path style="fill:#ec5f69; stroke:none;" d="M293.667 409.333L294.333 409.667L293.667 409.333z"/>
<path style="fill:#f4a2a9; stroke:none;" d="M295 409L295 410L301 410L295 409z"/>
<path style="fill:#ffffff; stroke:none;" d="M301 409.71C294.417 409.797 288.05 410.586 282 413.313C238.195 433.061 261.869 494.059 305 492.985C336.354 492.205 352.87 453.429 337.521 428C329.97 415.49 315.141 409.522 301 409.71z"/>
<path style="fill:#f4a2a9; stroke:none;" d="M302 409L302 410L307 410L302 409z"/>
<path style="fill:#ec5f69; stroke:none;" d="M307.667 409.333L308.333 409.667L307.667 409.333M463.667 409.333L464.333 409.667L463.667 409.333z"/>
<path style="fill:#f4a2a9; stroke:none;" d="M465 409L465 410L470 410L465 409z"/>
<path style="fill:#ffffff; stroke:none;" d="M507 461C507 446.214 506.999 430.518 495.816 419.174C478.262 401.368 445.001 408.972 437.913 433C429.75 460.67 435 495.358 435 524L435 628C435 645.354 433.246 663.768 435.285 681C436.336 689.878 437.531 699.472 442.8 707C454.28 723.399 478.204 728.215 495 716.776C515.486 702.824 512 674.543 512 653L512 576C512 556.753 511.497 535.587 517.205 517C526.76 485.887 556.959 466.069 589 469.17C620.104 472.18 628.576 498.154 632.421 525C640.053 578.3 627.37 633.753 634.289 687C638.199 717.085 673.812 736.388 697.957 712.907C709.166 702.006 710 685.628 710 671L710 602C710 571.245 712.082 539.597 709.17 509C707.749 494.071 707.067 479.923 700.691 466C675.652 411.315 607.474 396.097 555 420.309C535 429.538 521.563 445.19 507 461z"/>
<path style="fill:#f4a2a9; stroke:none;" d="M471 409L471 410L476 410L471 409z"/>
<path style="fill:#ec5f69; stroke:none;" d="M476.667 409.333L477.333 409.667L476.667 409.333M594 409L594 410L598 410L594 409z"/>
<path style="fill:#f4a2a9; stroke:none;" d="M598 409L598 410L607 410L598 409M608 409L608 410L617 410L608 409z"/>
<path style="fill:#ec5f69; stroke:none;" d="M617 409L617 410L620 410L617 409M883 409L883 413L884 413L883 409M288 410L289 411L288 410z"/>
<path style="fill:#f4a2a9; stroke:none;" d="M289.667 410.333L290.333 410.667L289.667 410.333M311.667 410.333L312.333 410.667L311.667 410.333z"/>
<path style="fill:#ec5f69; stroke:none;" d="M313 410L314 411L313 410M459 410L460 411L459 410z"/>
<path style="fill:#f4a2a9; stroke:none;" d="M460.667 410.333L461.333 410.667L460.667 410.333M480 410L481 411L480 410z"/>
<path style="fill:#ec5f69; stroke:none;" d="M481 410L482 411L481 410M586.667 410.333L587.333 410.667L586.667 410.333z"/>
<path style="fill:#f4a2a9; stroke:none;" d="M588 410L588 411L591 411L588 410M624.667 410.333L625.333 410.667L624.667 410.333z"/>
<path style="fill:#ec5f69; stroke:none;" d="M626.667 410.333L627.333 410.667L626.667 410.333z"/>
<path style="fill:#f4a2a9; stroke:none;" d="M804 410L804 415L805 415L804 410z"/>
<path style="fill:#ec5f69; stroke:none;" d="M285 411L286 412L285 411z"/>
<path style="fill:#f4a2a9; stroke:none;" d="M286 411L287 412L286 411M315 411L316 412L315 411z"/>
<path style="fill:#ec5f69; stroke:none;" d="M316 411L317 412L316 411M456 411L457 412L456 411z"/>
<path style="fill:#f4a2a9; stroke:none;" d="M457 411L458 412L457 411M483 411L484 412L483 411z"/>
<path style="fill:#ec5f69; stroke:none;" d="M484 411L485 412L484 411M580.667 411.333L581.333 411.667L580.667 411.333z"/>
<path style="fill:#f4a2a9; stroke:none;" d="M582.667 411.333L583.333 411.667L582.667 411.333M630.667 411.333L631.333 411.667L630.667 411.333z"/>
<path style="fill:#ec5f69; stroke:none;" d="M632 411L633 412L632 411z"/>
<path style="fill:#f4a2a9; stroke:none;" d="M283 412L284 413L283 412M318 412L319 413L318 412z"/>
<path style="fill:#ec5f69; stroke:none;" d="M454 412L455 413L454 412M486 412L487 413L486 412M576 412L577 413L576 412z"/>
<path style="fill:#f4a2a9; stroke:none;" d="M577.667 412.333L578.333 412.667L577.667 412.333M635.667 412.333L636.333 412.667L635.667 412.333z"/>
<path style="fill:#ec5f69; stroke:none;" d="M637 412L638 413L637 412M280 413L281 414L280 413z"/>
<path style="fill:#f4a2a9; stroke:none;" d="M281 413L282 414L281 413M320 413L321 414L320 413z"/>
<path style="fill:#ec5f69; stroke:none;" d="M321 413L322 414L321 413M452 413L453 414L452 413M488 413L489 414L488 413M572 413L573 414L572 413z"/>
<path style="fill:#f4a2a9; stroke:none;" d="M573.667 413.333L574.333 413.667L573.667 413.333M639 413L640 414L639 413z"/>
<path style="fill:#ec5f69; stroke:none;" d="M640 413L641 414L640 413M278 414L279 415L278 414z"/>
<path style="fill:#f4a2a9; stroke:none;" d="M279 414L280 415L279 414M322 414L323 415L322 414z"/>
<path style="fill:#ec5f69; stroke:none;" d="M323 414L324 415L323 414z"/>
<path style="fill:#f4a2a9; stroke:none;" d="M451 414L452 415L451 414z"/>
<path style="fill:#ec5f69; stroke:none;" d="M490 414L491 415L490 414M569 414L570 415L569 414z"/>
<path style="fill:#f4a2a9; stroke:none;" d="M570 414L571 415L570 414M643 414L644 415L643 414z"/>
<path style="fill:#ec5f69; stroke:none;" d="M644 414L645 415L644 414z"/>
<path style="fill:#f4a2a9; stroke:none;" d="M277 415L278 416L277 415M324 415L325 416L324 415z"/>
<path style="fill:#ec5f69; stroke:none;" d="M449 415L450 416L449 415z"/>
<path style="fill:#f4a2a9; stroke:none;" d="M491 415L492 416L491 415z"/>
<path style="fill:#ec5f69; stroke:none;" d="M566 415L567 416L566 415z"/>
<path style="fill:#f4a2a9; stroke:none;" d="M567 415L568 416L567 415M646 415L647 416L646 415z"/>
<path style="fill:#ec5f69; stroke:none;" d="M804 415L804 419L805 419L804 415M275 416L276 417L275 416M326 416L327 417L326 416z"/>
<path style="fill:#f4a2a9; stroke:none;" d="M448 416L449 417L448 416M492 416L493 417L492 416z"/>
<path style="fill:#ec5f69; stroke:none;" d="M563 416L564 417L563 416z"/>
<path style="fill:#f4a2a9; stroke:none;" d="M564 416L565 417L564 416M648 416L649 417L648 416z"/>
<path style="fill:#ec5f69; stroke:none;" d="M649 416L650 417L649 416z"/>
<path style="fill:#f4a2a9; stroke:none;" d="M274 417L275 418L274 417M327 417L328 418L327 417M447 417L448 418L447 417M561 417L562 418L561 417M651 417L652 418L651 417M882 417L882 421L883 421L882 417z"/>
<path style="fill:#ec5f69; stroke:none;" d="M272 418L273 419L272 418z"/>
<path style="fill:#f4a2a9; stroke:none;" d="M446 418L447 419L446 418z"/>
<path style="fill:#ec5f69; stroke:none;" d="M495 418L496 419L495 418M558 418L559 419L558 418z"/>
<path style="fill:#f4a2a9; stroke:none;" d="M559 418L560 419L559 418M653 418L654 419L653 418z"/>
<path style="fill:#ec5f69; stroke:none;" d="M654 418L655 419L654 418M271 419L272 420L271 419M330 419L331 420L330 419z"/>
<path style="fill:#f4a2a9; stroke:none;" d="M445 419L446 420L445 419z"/>
<path style="fill:#ec5f69; stroke:none;" d="M496 419L497 420L496 419M556 419L557 420L556 419M656 419L657 420L656 419z"/>
<path style="fill:#f4a2a9; stroke:none;" d="M270 420L271 421L270 420z"/>
<path style="fill:#ec5f69; stroke:none;" d="M331 420L332 421L331 420z"/>
<path style="fill:#f4a2a9; stroke:none;" d="M444 420L445 421L444 420z"/>
<path style="fill:#ec5f69; stroke:none;" d="M554 420L555 421L554 420M658 420L659 421L658 420z"/>
<path style="fill:#f4a2a9; stroke:none;" d="M269 421L270 422L269 421z"/>
<path style="fill:#ec5f69; stroke:none;" d="M332 421L333 422L332 421z"/>
<path style="fill:#f4a2a9; stroke:none;" d="M443 421L444 422L443 421M552 421L553 422L552 421z"/>
<path style="fill:#ec5f69; stroke:none;" d="M660 421L661 422L660 421M882 421L882 424L883 424L882 421z"/>
<path style="fill:#f4a2a9; stroke:none;" d="M268 422L269 423L268 422z"/>
<path style="fill:#ec5f69; stroke:none;" d="M333 422L334 423L333 422M442 422L443 423L442 422z"/>
<path style="fill:#f4a2a9; stroke:none;" d="M498 422L499 423L498 422z"/>
<path style="fill:#ec5f69; stroke:none;" d="M550 422L551 423L550 422M662 422L663 423L662 422z"/>
<path style="fill:#f4a2a9; stroke:none;" d="M267 423L268 424L267 423z"/>
<path style="fill:#ec5f69; stroke:none;" d="M334 423L335 424L334 423M499 423L500 424L499 423M548 423L549 424L548 423z"/>
<path style="fill:#f4a2a9; stroke:none;" d="M663 423L664 424L663 423z"/>
<path style="fill:#ec5f69; stroke:none;" d="M266 424L267 425L266 424z"/>
<path style="fill:#f4a2a9; stroke:none;" d="M441 424L442 425L441 424z"/>
<path style="fill:#ec5f69; stroke:none;" d="M546 424L547 425L546 424z"/>
<path style="fill:#f4a2a9; stroke:none;" d="M547 424L548 425L547 424M665 424L666 425L665 424z"/>
<path style="fill:#ec5f69; stroke:none;" d="M440 425L441 426L440 425z"/>
<path style="fill:#f4a2a9; stroke:none;" d="M500 425L501 426L500 425M545 425L546 426L545 425z"/>
<path style="fill:#ec5f69; stroke:none;" d="M667 425L668 426L667 425z"/>
<path style="fill:#f4a2a9; stroke:none;" d="M805 425L805 430L806 430L805 425M336 426L337 427L336 426M440 426L441 427L440 426z"/>
<path style="fill:#ec5f69; stroke:none;" d="M501 426L502 427L501 426M543 426L544 427L543 426z"/>
<path style="fill:#f4a2a9; stroke:none;" d="M668 426L669 427L668 426M264 427L265 428L264 427z"/>
<path style="fill:#ec5f69; stroke:none;" d="M337 427L338 428L337 427M439 427L440 428L439 427z"/>
<path style="fill:#f4a2a9; stroke:none;" d="M542 427L543 428L542 427z"/>
<path style="fill:#ec5f69; stroke:none;" d="M670 427L671 428L670 427z"/>
<path style="fill:#f4a2a9; stroke:none;" d="M439 428L440 429L439 428M502 428L503 429L502 428z"/>
<path style="fill:#ec5f69; stroke:none;" d="M540 428L541 429L540 428z"/>
<path style="fill:#f4a2a9; stroke:none;" d="M671 428L672 429L671 428M881 428L881 432L882 432L881 428z"/>
<path style="fill:#ec5f69; stroke:none;" d="M16 429L17 430L16 429z"/>
<path style="fill:#f4a2a9; stroke:none;" d="M263 429L264 430L263 429M338 429L339 430L338 429M539 429L540 430L539 429z"/>
<path style="fill:#ec5f69; stroke:none;" d="M1119 429L1120 430L1119 429M262 430L263 431L262 430z"/>
<path style="fill:#f4a2a9; stroke:none;" d="M438 430L439 431L438 430z"/>
<path style="fill:#ec5f69; stroke:none;" d="M503 430L504 431L503 430M674 430L675 431L674 430M805 430L805 434L806 434L805 430z"/>
<path style="fill:#f4a2a9; stroke:none;" d="M262 431L263 432L262 431M339 431L340 432L339 431M503 431L504 432L503 431z"/>
<path style="fill:#ec5f69; stroke:none;" d="M536 431L537 432L536 431M675 431L676 432L675 431M261 432L262 433L261 432M437 432L438 433L437 432M504 432L505 433L504 432z"/>
<path style="fill:#f4a2a9; stroke:none;" d="M535 432L536 433L535 432M676 432L677 433L676 432z"/>
<path style="fill:#ec5f69; stroke:none;" d="M881 432L881 436L882 436L881 432z"/>
<path style="fill:#ffffff; stroke:none;" d="M15 433L16 434L15 433z"/>
<path style="fill:#f4a2a9; stroke:none;" d="M261 433L262 434L261 433z"/>
<path style="fill:#ec5f69; stroke:none;" d="M340 433L341 434L340 433z"/>
<path style="fill:#f4a2a9; stroke:none;" d="M437.333 433.667L437.667 434.333L437.333 433.667M504 433L505 434L504 433M677 433L678 434L677 433z"/>
<path style="fill:#ffffff; stroke:none;" d="M1120 433L1121 434L1120 433z"/>
<path style="fill:#f4a2a9; stroke:none;" d="M340 434L341 435L340 434z"/>
<path style="fill:#ec5f69; stroke:none;" d="M532 434L533 435L532 434M260 435L261 436L260 435M505.333 435.667L505.667 436.333L505.333 435.667M531 435L532 436L531 435z"/>
<path style="fill:#f4a2a9; stroke:none;" d="M260 436L261 437L260 436z"/>
<path style="fill:#ec5f69; stroke:none;" d="M341 436L342 437L341 436M436 436L437 437L436 436z"/>
<path style="fill:#f4a2a9; stroke:none;" d="M530 436L531 437L530 436M341 437L342 438L341 437M436.333 437.667L436.667 438.333L436.333 437.667M505 437L506 438L505 437M529 437L530 438L529 437z"/>
<path style="fill:#ec5f69; stroke:none;" d="M682 437L683 438L682 437M259 438L260 439L259 438M683 438L684 439L683 438z"/>
<path style="fill:#f4a2a9; stroke:none;" d="M259.333 439.667L259.667 440.333L259.333 439.667z"/>
<path style="fill:#ec5f69; stroke:none;" d="M342 439L343 440L342 439M506.333 439.667L506.667 440.333L506.333 439.667z"/>
<path style="fill:#f4a2a9; stroke:none;" d="M342.333 440.667L342.667 441.333L342.333 440.667M806 440L806 445L807 445L806 440M880 440L880 444L881 444L880 440z"/>
<path style="fill:#ec5f69; stroke:none;" d="M435.333 441.667L435.667 442.333L435.333 441.667z"/>
<path style="fill:#f4a2a9; stroke:none;" d="M506.333 441.667L506.667 442.333L506.333 441.667z"/>
<path style="fill:#ec5f69; stroke:none;" d="M524 441L525 442L524 441z"/>
<path style="fill:#f4a2a9; stroke:none;" d="M685 441L686 442L685 441z"/>
<path style="fill:#ec5f69; stroke:none;" d="M523 442L524 443L523 442z"/>
<path style="fill:#f4a2a9; stroke:none;" d="M686 442L687 443L686 442z"/>
<path style="fill:#ec5f69; stroke:none;" d="M258.333 443.667L258.667 444.333L258.333 443.667z"/>
<path style="fill:#f4a2a9; stroke:none;" d="M435 443L435 447L436 447L435 443z"/>
<path style="fill:#ec5f69; stroke:none;" d="M522 443L523 444L522 443z"/>
<path style="fill:#f4a2a9; stroke:none;" d="M687 443L688 444L687 443z"/>
<path style="fill:#ec5f69; stroke:none;" d="M521 444L522 445L521 444M688 444L689 445L688 444M880 444L880 447L881 447L880 444z"/>
<path style="fill:#f4a2a9; stroke:none;" d="M258 445L258 451L259 451L258 445z"/>
<path style="fill:#ec5f69; stroke:none;" d="M343 445L343 448L344 448L343 445M520 445L521 446L520 445M806 445L806 449L807 449L806 445z"/>
<path style="fill:#f4a2a9; stroke:none;" d="M689 446L690 447L689 446z"/>
<path style="fill:#ec5f69; stroke:none;" d="M507 447L509 460L507 447z"/>
<path style="fill:#f4a2a9; stroke:none;" d="M690 447L691 448L690 447M343 448L343 455L344 455L343 448z"/>
<path style="fill:#ec5f69; stroke:none;" d="M691 448L692 449L691 448z"/>
<path style="fill:#f4a2a9; stroke:none;" d="M516 450L517 451L516 450M692 450L693 451L692 450M515 451L516 452L515 451z"/>
<path style="fill:#ec5f69; stroke:none;" d="M693 451L694 452L693 451z"/>
<path style="fill:#f4a2a9; stroke:none;" d="M879 451L879 455L880 455L879 451M258 452L258 456L259 456L258 452M514 452L515 453L514 452z"/>
<path style="fill:#ec5f69; stroke:none;" d="M513 453L514 454L513 453z"/>
<path style="fill:#f4a2a9; stroke:none;" d="M694 453L695 454L694 453z"/>
<path style="fill:#ec5f69; stroke:none;" d="M512 454L513 455L512 454M343.333 455.667L343.667 456.333L343.333 455.667z"/>
<path style="fill:#f4a2a9; stroke:none;" d="M695 455L696 456L695 455M807 455L807 460L808 460L807 455z"/>
<path style="fill:#ec5f69; stroke:none;" d="M879 455L879 459L880 459L879 455M258.333 456.667L258.667 457.333L258.333 456.667z"/>
<path style="fill:#f4a2a9; stroke:none;" d="M510 457L511 458L510 457M696 457L697 458L696 457z"/>
<path style="fill:#ec5f69; stroke:none;" d="M509 458L510 459L509 458M697 458L698 459L697 458z"/>
<path style="fill:#f4a2a9; stroke:none;" d="M697 459L698 460L697 459M259 460L260 461L259 460M342 460L343 461L342 460M507 460L508 461L507 460z"/>
<path style="fill:#ec5f69; stroke:none;" d="M698 460L699 461L698 460M807 460L807 464L808 464L807 460M9 461L10 462L9 461M259 461L260 462L259 461M342 461L343 462L342 461z"/>
<path style="fill:#f4a2a9; stroke:none;" d="M698 461L699 462L698 461z"/>
<path style="fill:#ec5f69; stroke:none;" d="M1126 461L1127 462L1126 461M699 462L700 463L699 462z"/>
<path style="fill:#f4a2a9; stroke:none;" d="M260 463L261 464L260 463M699 463L700 464L699 463M878 463L878 467L879 467L878 463z"/>
<path style="fill:#ec5f69; stroke:none;" d="M260 464L261 465L260 464z"/>
<path style="fill:#f4a2a9; stroke:none;" d="M341 464L342 465L341 464z"/>
<path style="fill:#ec5f69; stroke:none;" d="M700 464L701 465L700 464M341 465L342 466L341 465z"/>
<path style="fill:#f4a2a9; stroke:none;" d="M700 465L701 466L700 465z"/>
<path style="fill:#ffffff; stroke:none;" d="M8 466L9 467L8 466z"/>
<path style="fill:#f4a2a9; stroke:none;" d="M261 466L262 467L261 466z"/>
<path style="fill:#ec5f69; stroke:none;" d="M701 466L702 467L701 466z"/>
<path style="fill:#ffffff; stroke:none;" d="M1127 466L1128 467L1127 466z"/>
<path style="fill:#ec5f69; stroke:none;" d="M340 467L341 468L340 467z"/>
<path style="fill:#f4a2a9; stroke:none;" d="M701 467L702 468L701 467z"/>
<path style="fill:#ec5f69; stroke:none;" d="M878 467L878 470L879 470L878 467z"/>
<path style="fill:#f4a2a9; stroke:none;" d="M262 468L263 469L262 468M339 469L340 470L339 469M569 469L569 470L572 470L569 469z"/>
<path style="fill:#ec5f69; stroke:none;" d="M572.667 469.333L573.333 469.667L572.667 469.333M588.667 469.333L589.333 469.667L588.667 469.333z"/>
<path style="fill:#f4a2a9; stroke:none;" d="M590.667 469.333L591.333 469.667L590.667 469.333z"/>
<path style="fill:#ec5f69; stroke:none;" d="M702 469L703 470L702 469M263 470L264 471L263 470z"/>
<path style="fill:#f4a2a9; stroke:none;" d="M565 470L566 471L565 470z"/>
<path style="fill:#ec5f69; stroke:none;" d="M566.667 470.333L567.333 470.667L566.667 470.333M595 470L596 471L595 470z"/>
<path style="fill:#f4a2a9; stroke:none;" d="M596.667 470.333L597.333 470.667L596.667 470.333M702 470L703 471L702 470M808 470L808 475L809 475L808 470M264 471L265 472L264 471M338 471L339 472L338 471M561 471L562 472L561 471z"/>
<path style="fill:#ec5f69; stroke:none;" d="M562 471L563 472L562 471M599 471L600 472L599 471z"/>
<path style="fill:#f4a2a9; stroke:none;" d="M600 471L601 472L600 471z"/>
<path style="fill:#ffffff; stroke:none;" d="M7 472L8 473L7 472z"/>
<path style="fill:#f4a2a9; stroke:none;" d="M558 472L559 473L558 472z"/>
<path style="fill:#ec5f69; stroke:none;" d="M559 472L560 473L559 472M602 472L603 473L602 472z"/>
<path style="fill:#f4a2a9; stroke:none;" d="M603 472L604 473L603 472M703 472L704 473L703 472z"/>
<path style="fill:#ffffff; stroke:none;" d="M1128 472L1129 473L1128 472z"/>
<path style="fill:#ec5f69; stroke:none;" d="M265 473L266 474L265 473M337 473L338 474L337 473z"/>
<path style="fill:#f4a2a9; stroke:none;" d="M556 473L557 474L556 473z"/>
<path style="fill:#ec5f69; stroke:none;" d="M605 473L606 474L605 473z"/>
<path style="fill:#f4a2a9; stroke:none;" d="M266 474L267 475L266 474M336 474L337 475L336 474z"/>
<path style="fill:#ec5f69; stroke:none;" d="M554 474L555 475L554 474M607 474L608 475L607 474M704 474L705 475L704 474z"/>
<path style="fill:#f4a2a9; stroke:none;" d="M877 474L877 478L878 478L877 474M551 475L552 476L551 475z"/>
<path style="fill:#ec5f69; stroke:none;" d="M552 475L553 476L552 475z"/>
<path style="fill:#f4a2a9; stroke:none;" d="M609 475L610 476L609 475M704 475L705 476L704 475z"/>
<path style="fill:#ec5f69; stroke:none;" d="M808 475L808 479L809 479L808 475M335 476L336 477L335 476M550 476L551 477L550 476z"/>
<path style="fill:#f4a2a9; stroke:none;" d="M611 476L612 477L611 476z"/>
<path style="fill:#ec5f69; stroke:none;" d="M268 477L269 478L268 477M334 477L335 478L334 477z"/>
<path style="fill:#f4a2a9; stroke:none;" d="M548 477L549 478L548 477z"/>
<path style="fill:#ec5f69; stroke:none;" d="M612 477L613 478L612 477z"/>
<path style="fill:#ffffff; stroke:none;" d="M6 478L7 479L6 478z"/>
<path style="fill:#ec5f69; stroke:none;" d="M269 478L270 479L269 478z"/>
<path style="fill:#f4a2a9; stroke:none;" d="M333 478L334 479L333 478M546 478L547 479L546 478z"/>
<path style="fill:#ec5f69; stroke:none;" d="M613 478L614 479L613 478M705 478L706 479L705 478M877 478L877 481L878 481L877 478z"/>
<path style="fill:#ffffff; stroke:none;" d="M1129 478L1130 479L1129 478z"/>
<path style="fill:#ec5f69; stroke:none;" d="M270 479L271 480L270 479z"/>
<path style="fill:#f4a2a9; stroke:none;" d="M332 479L333 480L332 479z"/>
<path style="fill:#ec5f69; stroke:none;" d="M545 479L546 480L545 479z"/>
<path style="fill:#f4a2a9; stroke:none;" d="M615 479L616 480L615 479M705 479L706 480L705 479M271 480L272 481L271 480M331 480L332 481L331 480M543 480L544 481L543 480M616 480L617 481L616 480z"/>
<path style="fill:#ec5f69; stroke:none;" d="M272 481L273 482L272 481z"/>
<path style="fill:#f4a2a9; stroke:none;" d="M330 481L331 482L330 481z"/>
<path style="fill:#ec5f69; stroke:none;" d="M542 481L543 482L542 481z"/>
<path style="fill:#f4a2a9; stroke:none;" d="M617 481L618 482L617 481z"/>
<path style="fill:#ec5f69; stroke:none;" d="M706 481L707 482L706 481M273 482L274 483L273 482z"/>
<path style="fill:#f4a2a9; stroke:none;" d="M329 482L330 483L329 482z"/>
<path style="fill:#ec5f69; stroke:none;" d="M541 482L542 483L541 482z"/>
<path style="fill:#f4a2a9; stroke:none;" d="M706.333 482.667L706.667 483.333L706.333 482.667z"/>
<path style="fill:#ec5f69; stroke:none;" d="M274 483L275 484L274 483M328 483L329 484L328 483z"/>
<path style="fill:#f4a2a9; stroke:none;" d="M539 483L540 484L539 483z"/>
<path style="fill:#ec5f69; stroke:none;" d="M327 484L328 485L327 484z"/>
<path style="fill:#f4a2a9; stroke:none;" d="M538 484L539 485L538 484z"/>
<path style="fill:#ec5f69; stroke:none;" d="M619 484L620 485L619 484z"/>
<path style="fill:#f4a2a9; stroke:none;" d="M277 485L278 486L277 485M325 485L326 486L325 485z"/>
<path style="fill:#ec5f69; stroke:none;" d="M537 485L538 486L537 485z"/>
<path style="fill:#f4a2a9; stroke:none;" d="M620 485L621 486L620 485M809 485L809 490L810 490L809 485z"/>
<path style="fill:#ec5f69; stroke:none;" d="M278 486L279 487L278 486z"/>
<path style="fill:#f4a2a9; stroke:none;" d="M324 486L325 487L324 486z"/>
<path style="fill:#ec5f69; stroke:none;" d="M536 486L537 487L536 486M707.333 486.667L707.667 487.333L707.333 486.667z"/>
<path style="fill:#f4a2a9; stroke:none;" d="M876 486L876 490L877 490L876 486M280 487L281 488L280 487M322 487L323 488L322 487z"/>
<path style="fill:#ec5f69; stroke:none;" d="M323 487L324 488L323 487M535 487L536 488L535 487M621 487L622 488L621 487M281 488L282 489L281 488M321 488L322 489L321 488M534 488L535 489L534 488z"/>
<path style="fill:#f4a2a9; stroke:none;" d="M622 488L623 489L622 488M707.333 488.667L707.667 489.333L707.333 488.667z"/>
<path style="fill:#ec5f69; stroke:none;" d="M283 489L284 490L283 489M319 489L320 490L319 489M533 489L534 490L533 489z"/>
<path style="fill:#f4a2a9; stroke:none;" d="M285 490L286 491L285 490z"/>
<path style="fill:#ec5f69; stroke:none;" d="M317 490L318 491L317 490M532 490L533 491L532 490z"/>
<path style="fill:#f4a2a9; stroke:none;" d="M623 490L624 491L623 490z"/>
<path style="fill:#ec5f69; stroke:none;" d="M809 490L809 494L810 494L809 490M876 490L876 493L877 493L876 490M287 491L288 492L287 491z"/>
<path style="fill:#f4a2a9; stroke:none;" d="M288 491L289 492L288 491M314 491L315 492L314 491M531 491L532 492L531 491z"/>
<path style="fill:#ec5f69; stroke:none;" d="M623 491L624 492L623 491M4 492L5 493L4 492M290 492L291 493L290 492z"/>
<path style="fill:#f4a2a9; stroke:none;" d="M291 492L292 493L291 492M310 492L311 493L310 492z"/>
<path style="fill:#ec5f69; stroke:none;" d="M311 492L312 493L311 492z"/>
<path style="fill:#f4a2a9; stroke:none;" d="M530 492L531 493L530 492M624 492L625 493L624 492z"/>
<path style="fill:#ec5f69; stroke:none;" d="M708 492L708 495L709 495L708 492M1131 492L1132 493L1131 492M294.667 493.333L295.333 493.667L294.667 493.333z"/>
<path style="fill:#f4a2a9; stroke:none;" d="M296 493L296 494L306 494L296 493z"/>
<path style="fill:#ec5f69; stroke:none;" d="M306.667 493.333L307.333 493.667L306.667 493.333M624 493L625 494L624 493M528 495L529 496L528 495M625 495L626 496L625 495z"/>
<path style="fill:#f4a2a9; stroke:none;" d="M708 495L708 498L709 498L708 495M527 496L528 497L527 496M626 497L627 498L626 497M875 497L875 501L876 501L875 497z"/>
<path style="fill:#ec5f69; stroke:none;" d="M526 498L527 499L526 498M626 498L627 499L626 498z"/>
<path style="fill:#f4a2a9; stroke:none;" d="M525 499L526 500L525 499M3 500L4 501L3 500M627 500L628 501L627 500M810 500L810 505L811 505L810 500M1132 500L1133 501L1132 500z"/>
<path style="fill:#ec5f69; stroke:none;" d="M524 501L525 502L524 501M627 501L628 502L627 501M875 501L875 504L876 504L875 501z"/>
<path style="fill:#f4a2a9; stroke:none;" d="M523 502L524 503L523 502z"/>
<path style="fill:#ec5f69; stroke:none;" d="M709 502L709 506L710 506L709 502M523 503L524 504L523 503z"/>
<path style="fill:#f4a2a9; stroke:none;" d="M628.333 503.667L628.667 504.333L628.333 503.667M522 504L523 505L522 504z"/>
<path style="fill:#ec5f69; stroke:none;" d="M628 505L629 506L628 505M810 505L810 509L811 509L810 505z"/>
<path style="fill:#f4a2a9; stroke:none;" d="M521 506L522 507L521 506M709 506L709 512L710 512L709 506M629.333 507.667L629.667 508.333L629.333 507.667M520 508L521 509L520 508z"/>
<path style="fill:#ec5f69; stroke:none;" d="M629 509L630 510L629 509z"/>
<path style="fill:#f4a2a9; stroke:none;" d="M874 509L874 513L875 513L874 509M519 510L520 511L519 510z"/>
<path style="fill:#ec5f69; stroke:none;" d="M519 511L520 512L519 511z"/>
<path style="fill:#f4a2a9; stroke:none;" d="M630 512L631 513L630 512M518 513L519 514L518 513z"/>
<path style="fill:#ec5f69; stroke:none;" d="M630.333 513.667L630.667 514.333L630.333 513.667M874 513L874 516L875 516L874 513z"/>
<path style="fill:#f4a2a9; stroke:none;" d="M517 515L518 516L517 515M811 515L811 520L812 520L811 515z"/>
<path style="fill:#ec5f69; stroke:none;" d="M517.333 516.667L517.667 517.333L517.333 516.667z"/>
<path style="fill:#f4a2a9; stroke:none;" d="M631.333 518.667L631.667 519.333L631.333 518.667M516 519L517 520L516 519z"/>
<path style="fill:#ec5f69; stroke:none;" d="M1 520L2 521L1 520M516.333 520.667L516.667 521.333L516.333 520.667M631.333 520.667L631.667 521.333L631.333 520.667M811 520L811 524L812 524L811 520z"/>
<path style="fill:#f4a2a9; stroke:none;" d="M873 520L873 524L874 524L873 520z"/>
<path style="fill:#ec5f69; stroke:none;" d="M1134 520L1135 521L1134 520z"/>
<path style="fill:#f4a2a9; stroke:none;" d="M515.333 523.667L515.667 524.333L515.333 523.667z"/>
<path style="fill:#ec5f69; stroke:none;" d="M873 524L873 527L874 527L873 524M515.333 525.667L515.667 526.333L515.333 525.667z"/>
<path style="fill:#f4a2a9; stroke:none;" d="M632 525L632 529L633 529L632 525z"/>
<path style="fill:#ec5f69; stroke:none;" d="M710 525L710 678L711 678L711 571C711 558.009 715.007 536.932 710 525M632 529L632 533L633 533L632 529z"/>
<path style="fill:#f4a2a9; stroke:none;" d="M514.333 530.667L514.667 531.333L514.333 530.667M812 530L812 535L813 535L812 530z"/>
<path style="fill:#ec5f69; stroke:none;" d="M514 532L514 535L515 535L514 532z"/>
<path style="fill:#f4a2a9; stroke:none;" d="M872 532L872 535L873 535L872 532z"/>
<path style="fill:#ffffff; stroke:none;" d="M0 534L1 535L0 534z"/>
<path style="fill:#ec5f69; stroke:none;" d="M812 535L812 538L813 538L812 535M872 535L872 539L873 539L872 535z"/>
<path style="fill:#f4a2a9; stroke:none;" d="M513 538L513 542L514 542L513 538z"/>
<path style="fill:#ec5f69; stroke:none;" d="M513 542L513 546L514 546L513 542z"/>
<path style="fill:#f4a2a9; stroke:none;" d="M813.333 542.667L813.667 543.333L813.333 542.667z"/>
<path style="fill:#ec5f69; stroke:none;" d="M295 543L296 544L295 543z"/>
<path style="fill:#f4a2a9; stroke:none;" d="M296.667 543.333L297.333 543.667L296.667 543.333z"/>
<path style="fill:#ffffff; stroke:none;" d="M298 543.465C270.994 548.206 272.132 593.037 270.965 614C267.75 671.716 257.596 729.101 259.015 787C259.756 817.271 275.074 841.444 308 836.7C336.899 832.536 343 805.561 343 781C343 721.767 337.441 660.956 331.83 602C329.917 581.898 328.803 538.058 298 543.465z"/>
<path style="fill:#f4a2a9; stroke:none;" d="M305.667 543.333L306.333 543.667L305.667 543.333z"/>
<path style="fill:#ec5f69; stroke:none;" d="M307.667 543.333L308.333 543.667L307.667 543.333z"/>
<path style="fill:#f4a2a9; stroke:none;" d="M633 543L633 683L634 683L634 585C634 573.056 637.607 553.98 633 543M871.333 543.667L871.667 544.333L871.333 543.667z"/>
<path style="fill:#ec5f69; stroke:none;" d="M292 544L293 545L292 544z"/>
<path style="fill:#f4a2a9; stroke:none;" d="M293 544L294 545L293 544M310 544L311 545L310 544z"/>
<path style="fill:#ec5f69; stroke:none;" d="M311 544L312 545L311 544M813 544L813 547L814 547L813 544z"/>
<path style="fill:#f4a2a9; stroke:none;" d="M290 545L291 546L290 545z"/>
<path style="fill:#ec5f69; stroke:none;" d="M313 545L314 546L313 545M871 545L871 548L872 548L871 545M288 546L289 547L288 546z"/>
<path style="fill:#f4a2a9; stroke:none;" d="M314 546L315 547L314 546M287 547L288 548L287 547z"/>
<path style="fill:#ec5f69; stroke:none;" d="M316 547L317 548L316 547z"/>
<path style="fill:#f4a2a9; stroke:none;" d="M286 548L287 549L286 548M317 548L318 549L317 548M285 549L286 550L285 549M318 549L319 550L318 549M814.333 549.667L814.667 550.333L814.333 549.667M284 550L285 551L284 550M319 550L320 551L319 550M870.333 550.667L870.667 551.333L870.333 550.667M283 551L284 552L283 551z"/>
<path style="fill:#ec5f69; stroke:none;" d="M320 551L321 552L320 551M814.333 551.667L814.667 552.333L814.333 551.667M282 552L283 553L282 552M870.333 552.667L870.667 553.333L870.333 552.667z"/>
<path style="fill:#f4a2a9; stroke:none;" d="M321 553L322 554L321 553M512 553L512 562L513 562L512 553z"/>
<path style="fill:#ec5f69; stroke:none;" d="M281 554L282 555L281 554M322 554L323 555L322 554z"/>
<path style="fill:#f4a2a9; stroke:none;" d="M322 555L323 556L322 555M815.333 555.667L815.667 556.333L815.333 555.667M280 556L281 557L280 556z"/>
<path style="fill:#ec5f69; stroke:none;" d="M323 556L324 557L323 556z"/>
<path style="fill:#f4a2a9; stroke:none;" d="M869.333 556.667L869.667 557.333L869.333 556.667M323 557L324 558L323 557z"/>
<path style="fill:#ec5f69; stroke:none;" d="M815 557L816 558L815 557M279 558L280 559L279 558M869 558L870 559L869 558z"/>
<path style="fill:#f4a2a9; stroke:none;" d="M279 559L280 560L279 559M324 559L325 560L324 559M816.333 560.667L816.667 561.333L816.333 560.667M278 561L279 562L278 561z"/>
<path style="fill:#ec5f69; stroke:none;" d="M325 561L326 562L325 561z"/>
<path style="fill:#f4a2a9; stroke:none;" d="M868 561L869 562L868 561M325 562L326 563L325 562z"/>
<path style="fill:#ec5f69; stroke:none;" d="M512 562L512 678L513 678L513 597L512 562M816 562L817 563L816 562M868 562L869 563L868 562M277 563L278 564L277 563z"/>
<path style="fill:#f4a2a9; stroke:none;" d="M277.333 564.667L277.667 565.333L277.333 564.667z"/>
<path style="fill:#ec5f69; stroke:none;" d="M326 564L327 565L326 564z"/>
<path style="fill:#f4a2a9; stroke:none;" d="M817 564L818 565L817 564M326 565L327 566L326 565z"/>
<path style="fill:#ec5f69; stroke:none;" d="M817.333 565.667L817.667 566.333L817.333 565.667z"/>
<path style="fill:#f4a2a9; stroke:none;" d="M867 565L868 566L867 565z"/>
<path style="fill:#ec5f69; stroke:none;" d="M867 566L868 567L867 566M276 567L277 568L276 567z"/>
<path style="fill:#f4a2a9; stroke:none;" d="M276 568L277 569L276 568z"/>
<path style="fill:#ec5f69; stroke:none;" d="M327 568L328 569L327 568z"/>
<path style="fill:#f4a2a9; stroke:none;" d="M818 568L819 569L818 568M866 568L867 569L866 568M327 569L328 570L327 569z"/>
<path style="fill:#ec5f69; stroke:none;" d="M818 569L819 570L818 569M866 569L867 570L866 569M275 571L276 572L275 571z"/>
<path style="fill:#f4a2a9; stroke:none;" d="M819 571L820 572L819 571M865 571L866 572L865 571M275.333 572.667L275.667 573.333L275.333 572.667z"/>
<path style="fill:#ec5f69; stroke:none;" d="M328 572L329 573L328 572M819 572L820 573L819 572z"/>
<path style="fill:#f4a2a9; stroke:none;" d="M328.333 573.667L328.667 574.333L328.333 573.667M820 573L821 574L820 573M864 573L865 574L864 573z"/>
<path style="fill:#ec5f69; stroke:none;" d="M820 574L821 575L820 574M864 574L865 575L864 574z"/>
<path style="fill:#f4a2a9; stroke:none;" d="M863 575L864 576L863 575z"/>
<path style="fill:#ec5f69; stroke:none;" d="M274 576L275 577L274 576M821 576L822 577L821 576z"/>
<path style="fill:#f4a2a9; stroke:none;" d="M274.333 577.667L274.667 578.333L274.333 577.667z"/>
<path style="fill:#ec5f69; stroke:none;" d="M329 577L330 578L329 577z"/>
<path style="fill:#f4a2a9; stroke:none;" d="M862 577L863 578L862 577M329 578L329 581L330 581L329 578z"/>
<path style="fill:#ec5f69; stroke:none;" d="M822 578L823 579L822 578z"/>
<path style="fill:#f4a2a9; stroke:none;" d="M823 579L824 580L823 579z"/>
<path style="fill:#ec5f69; stroke:none;" d="M861 579L862 580L861 579z"/>
<path style="fill:#f4a2a9; stroke:none;" d="M860 580L861 581L860 580z"/>
<path style="fill:#ec5f69; stroke:none;" d="M824 581L825 582L824 581z"/>
<path style="fill:#f4a2a9; stroke:none;" d="M859 581L860 582L859 581z"/>
<path style="fill:#ec5f69; stroke:none;" d="M273.333 582.667L273.667 583.333L273.333 582.667M825 582L826 583L825 582z"/>
<path style="fill:#f4a2a9; stroke:none;" d="M858 582L859 583L858 582z"/>
<path style="fill:#ec5f69; stroke:none;" d="M330.333 583.667L330.667 584.333L330.333 583.667M826 583L827 584L826 583z"/>
<path style="fill:#f4a2a9; stroke:none;" d="M857 583L858 584L857 583M273.333 584.667L273.667 585.333L273.333 584.667M828 584L829 585L828 584z"/>
<path style="fill:#ec5f69; stroke:none;" d="M856 584L857 585L856 584z"/>
<path style="fill:#f4a2a9; stroke:none;" d="M330 585L330 588L331 588L330 585z"/>
<path style="fill:#ec5f69; stroke:none;" d="M829 585L830 586L829 585z"/>
<path style="fill:#f4a2a9; stroke:none;" d="M854 585L855 586L854 585z"/>
<path style="fill:#ec5f69; stroke:none;" d="M831 586L832 587L831 586z"/>
<path style="fill:#f4a2a9; stroke:none;" d="M852 586L853 587L852 586M834.667 587.333L835.333 587.667L834.667 587.333M849 587L850 588L849 587z"/>
<path style="fill:#ec5f69; stroke:none;" d="M850 587L851 588L850 587M838 588L838 589L841 589L838 588z"/>
<path style="fill:#f4a2a9; stroke:none;" d="M841.667 588.333L842.333 588.667L841.667 588.333z"/>
<path style="fill:#ec5f69; stroke:none;" d="M843 588L843 589L847 589L843 588M272 589L272 593L273 593L272 589M331 592L331 595L332 595L331 592z"/>
<path style="fill:#f4a2a9; stroke:none;" d="M272 593L272 596L273 596L272 593M331 595L331 600L332 600L331 595z"/>
<path style="fill:#ec5f69; stroke:none;" d="M271 600L271 604L272 604L271 600z"/>
<path style="fill:#010101; stroke:none;" d="M0 601L0 1136L534 1136L534 1135C489.738 1135 444.193 1124.38 402 1111.72C247.08 1065.24 117.593 949.555 50.3086 803C30.7715 760.445 16.7348 715.076 8.42438 669C5.74138 654.124 3.62521 639.04 2.16975 624C1.49217 616.998 2.6904 607.412 0 601M1135 601C1135 645.65 1124.49 691.424 1111.72 734C1061 903.071 927.129 1043.36 761 1102.69C710.934 1120.57 655.499 1135 602 1135L602 1136L1136 1136L1136 757L1136 648C1136 634.747 1140.11 613.169 1135 601z"/>
<path style="fill:#f4a2a9; stroke:none;" d="M271 604L271 608L272 608L271 604z"/>
<path style="fill:#ec5f69; stroke:none;" d="M332 605L332 609L333 609L332 605z"/>
<path style="fill:#f4a2a9; stroke:none;" d="M332 609L332 614L333 614L332 609z"/>
<path style="fill:#ec5f69; stroke:none;" d="M270 612L270 615L271 615L270 612M1 615L2 616L1 615z"/>
<path style="fill:#f4a2a9; stroke:none;" d="M270 615L270 619L271 619L270 615z"/>
<path style="fill:#ec5f69; stroke:none;" d="M1134 615L1135 616L1134 615M333 619L333 623L334 623L333 619M269 623L269 627L270 627L269 623z"/>
<path style="fill:#f4a2a9; stroke:none;" d="M333 623L333 628L334 628L333 623M269 627L269 631L270 631L269 627z"/>
<path style="fill:#ec5f69; stroke:none;" d="M334 633L334 637L335 637L334 633z"/>
<path style="fill:#f4a2a9; stroke:none;" d="M3 635L4 636L3 635z"/>
<path style="fill:#ec5f69; stroke:none;" d="M268 635L268 638L269 638L268 635z"/>
<path style="fill:#f4a2a9; stroke:none;" d="M1132 635L1133 636L1132 635M334 637L334 642L335 642L334 637M268 638L268 642L269 642L268 638z"/>
<path style="fill:#ec5f69; stroke:none;" d="M835.667 638.333L836.333 638.667L835.667 638.333z"/>
<path style="fill:#f4a2a9; stroke:none;" d="M837 638L837 639L840 639L837 638z"/>
<path style="fill:#ffffff; stroke:none;" d="M840 638.426C797.137 644.057 785.169 706.828 830 720.279C836.882 722.343 844.875 722.727 852 721.7C904.134 714.184 891.44 631.669 840 638.426z"/>
<path style="fill:#f4a2a9; stroke:none;" d="M847 638L847 639L850 639L847 638z"/>
<path style="fill:#ec5f69; stroke:none;" d="M850.667 638.333L851.333 638.667L850.667 638.333M831 639L832 640L831 639z"/>
<path style="fill:#f4a2a9; stroke:none;" d="M832 639L833 640L832 639M854 639L855 640L854 639z"/>
<path style="fill:#ec5f69; stroke:none;" d="M855 639L856 640L855 639M828 640L829 641L828 640z"/>
<path style="fill:#f4a2a9; stroke:none;" d="M829 640L830 641L829 640M857 640L858 641L857 640z"/>
<path style="fill:#ec5f69; stroke:none;" d="M858 640L859 641L858 640M825 641L826 642L825 641z"/>
<path style="fill:#f4a2a9; stroke:none;" d="M826 641L827 642L826 641M860 641L861 642L860 641z"/>
<path style="fill:#ec5f69; stroke:none;" d="M861 641L862 642L861 641M823 642L824 643L823 642z"/>
<path style="fill:#f4a2a9; stroke:none;" d="M824 642L825 643L824 642M862 642L863 643L862 642z"/>
<path style="fill:#ec5f69; stroke:none;" d="M863 642L864 643L863 642M4 643L5 644L4 643z"/>
<path style="fill:#f4a2a9; stroke:none;" d="M822 643L823 644L822 643M864 643L865 644L864 643z"/>
<path style="fill:#ec5f69; stroke:none;" d="M1131 643L1132 644L1131 643M820 644L821 645L820 644z"/>
<path style="fill:#f4a2a9; stroke:none;" d="M866 644L867 645L866 644M819 645L820 646L819 645z"/>
<path style="fill:#ec5f69; stroke:none;" d="M868 645L869 646L868 645M267 646L267 650L268 650L267 646M817 646L818 647L817 646M869 646L870 647L869 646M335 647L335 652L336 652L335 647z"/>
<path style="fill:#f4a2a9; stroke:none;" d="M816 647L817 648L816 647M870 647L871 648L870 647M815 648L816 649L815 648M871 648L872 649L871 648M814 649L815 650L814 649M267 650L267 654L268 654L267 650M813 650L814 651L813 650M812 651L813 652L812 651M335 652L335 656L336 656L335 652M811 652L812 653L811 652M810 653L811 654L810 653M876 653L877 654L876 653z"/>
<path style="fill:#ec5f69; stroke:none;" d="M809 654L810 655L809 654z"/>
<path style="fill:#f4a2a9; stroke:none;" d="M877 654L878 655L877 654z"/>
<path style="fill:#ec5f69; stroke:none;" d="M878 655L879 656L878 655z"/>
<path style="fill:#f4a2a9; stroke:none;" d="M808 656L809 657L808 656z"/>
<path style="fill:#ec5f69; stroke:none;" d="M879 656L880 657L879 656z"/>
<path style="fill:#ffffff; stroke:none;" d="M6 657L7 658L6 657z"/>
<path style="fill:#ec5f69; stroke:none;" d="M807 657L808 658L807 657z"/>
<path style="fill:#ffffff; stroke:none;" d="M1129 657L1130 658L1129 657z"/>
<path style="fill:#ec5f69; stroke:none;" d="M266 658L266 661L267 661L266 658M880 658L881 659L880 658z"/>
<path style="fill:#f4a2a9; stroke:none;" d="M806 659L807 660L806 659z"/>
<path style="fill:#ec5f69; stroke:none;" d="M805 660L806 661L805 660z"/>
<path style="fill:#f4a2a9; stroke:none;" d="M881 660L882 661L881 660M266 661L266 665L267 665L266 661M805 661L806 662L805 661z"/>
<path style="fill:#ec5f69; stroke:none;" d="M336 662L336 666L337 666L336 662M804 662L805 663L804 662z"/>
<path style="fill:#f4a2a9; stroke:none;" d="M882 662L883 663L882 662z"/>
<path style="fill:#ffffff; stroke:none;" d="M7 663L8 664L7 663z"/>
<path style="fill:#f4a2a9; stroke:none;" d="M804 663L805 664L804 663z"/>
<path style="fill:#ffffff; stroke:none;" d="M1128 663L1129 664L1128 663z"/>
<path style="fill:#f4a2a9; stroke:none;" d="M883 664L884 665L883 664z"/>
<path style="fill:#ec5f69; stroke:none;" d="M803 665L804 666L803 665z"/>
<path style="fill:#f4a2a9; stroke:none;" d="M336 666L336 671L337 671L336 666M803 666L804 667L803 666z"/>
<path style="fill:#ec5f69; stroke:none;" d="M884 666L885 667L884 666z"/>
<path style="fill:#f4a2a9; stroke:none;" d="M884 667L885 668L884 667z"/>
<path style="fill:#ec5f69; stroke:none;" d="M802 668L803 669L802 668z"/>
<path style="fill:#ffffff; stroke:none;" d="M8 669L9 670L8 669z"/>
<path style="fill:#ec5f69; stroke:none;" d="M265 669L265 673L266 673L265 669z"/>
<path style="fill:#f4a2a9; stroke:none;" d="M802 669L803 670L802 669z"/>
<path style="fill:#ffffff; stroke:none;" d="M1127 669L1128 670L1127 669z"/>
<path style="fill:#ec5f69; stroke:none;" d="M885 670L886 671L885 670z"/>
<path style="fill:#f4a2a9; stroke:none;" d="M885.333 671.667L885.667 672.333L885.333 671.667z"/>
<path style="fill:#ec5f69; stroke:none;" d="M801.333 672.667L801.667 673.333L801.333 672.667z"/>
<path style="fill:#f4a2a9; stroke:none;" d="M265 673L265 677L266 677L265 673z"/>
<path style="fill:#ec5f69; stroke:none;" d="M9 674L10 675L9 674z"/>
<path style="fill:#f4a2a9; stroke:none;" d="M801.333 674.667L801.667 675.333L801.333 674.667z"/>
<path style="fill:#ec5f69; stroke:none;" d="M1126 674L1127 675L1126 674M886 675L886 686L887 686L886 675M337 676L337 680L338 680L337 676z"/>
<path style="fill:#f4a2a9; stroke:none;" d="M337 680L337 685L338 685L337 680z"/>
<path style="fill:#ec5f69; stroke:none;" d="M264 681L264 684L265 684L264 681z"/>
<path style="fill:#f4a2a9; stroke:none;" d="M435 682L435 686L436 686L435 682z"/>
<path style="fill:#ec5f69; stroke:none;" d="M633 683L633 686L634 686L633 683z"/>
<path style="fill:#f4a2a9; stroke:none;" d="M264 684L264 688L265 688L264 684M511 684L511 688L512 688L511 684M801 684L801 687L802 687L801 684M709 685L709 688L710 688L709 685z"/>
<path style="fill:#ec5f69; stroke:none;" d="M435.333 686.667L435.667 687.333L435.333 686.667M801 687L801 690L802 690L801 687M511 688L512 689L511 688z"/>
<path style="fill:#f4a2a9; stroke:none;" d="M634.333 688.667L634.667 689.333L634.333 688.667z"/>
<path style="fill:#ec5f69; stroke:none;" d="M709.333 688.667L709.667 689.333L709.333 688.667z"/>
<path style="fill:#f4a2a9; stroke:none;" d="M885 689L886 690L885 689z"/>
<path style="fill:#ec5f69; stroke:none;" d="M338 690L338 694L339 694L338 690z"/>
<path style="fill:#f4a2a9; stroke:none;" d="M436.333 690.667L436.667 691.333L436.333 690.667z"/>
<path style="fill:#ec5f69; stroke:none;" d="M634.333 690.667L634.667 691.333L634.333 690.667M885.333 690.667L885.667 691.333L885.333 690.667z"/>
<path style="fill:#f4a2a9; stroke:none;" d="M510.333 691.667L510.667 692.333L510.333 691.667M802.333 691.667L802.667 692.333L802.333 691.667z"/>
<path style="fill:#ec5f69; stroke:none;" d="M436 692L437 693L436 692z"/>
<path style="fill:#f4a2a9; stroke:none;" d="M708 692L709 693L708 692z"/>
<path style="fill:#ec5f69; stroke:none;" d="M263 693L263 696L264 696L263 693M510 693L511 694L510 693z"/>
<path style="fill:#f4a2a9; stroke:none;" d="M635.333 693.667L635.667 694.333L635.333 693.667z"/>
<path style="fill:#ec5f69; stroke:none;" d="M708 693L709 694L708 693M802 693L803 694L802 693z"/>
<path style="fill:#f4a2a9; stroke:none;" d="M884 693L885 694L884 693M338 694L338 699L339 699L338 694M437.333 694.667L437.667 695.333L437.333 694.667z"/>
<path style="fill:#ec5f69; stroke:none;" d="M884 694L885 695L884 694M635 695L636 696L635 695z"/>
<path style="fill:#f4a2a9; stroke:none;" d="M803 695L804 696L803 695M263 696L263 700L264 700L263 696z"/>
<path style="fill:#ec5f69; stroke:none;" d="M437 696L438 697L437 696z"/>
<path style="fill:#f4a2a9; stroke:none;" d="M509 696L510 697L509 696M707 696L708 697L707 696z"/>
<path style="fill:#ec5f69; stroke:none;" d="M803 696L804 697L803 696z"/>
<path style="fill:#f4a2a9; stroke:none;" d="M883 696L884 697L883 696z"/>
<path style="fill:#ec5f69; stroke:none;" d="M509 697L510 698L509 697z"/>
<path style="fill:#f4a2a9; stroke:none;" d="M636 697L637 698L636 697z"/>
<path style="fill:#ec5f69; stroke:none;" d="M707 697L708 698L707 697M883 697L884 698L883 697z"/>
<path style="fill:#f4a2a9; stroke:none;" d="M438 698L439 699L438 698z"/>
<path style="fill:#ec5f69; stroke:none;" d="M636 698L637 699L636 698z"/>
<path style="fill:#f4a2a9; stroke:none;" d="M804 698L805 699L804 698M508 699L509 700L508 699M706 699L707 700L706 699M882 699L883 700L882 699M439 700L440 701L439 700M637 700L638 701L637 700z"/>
<path style="fill:#ec5f69; stroke:none;" d="M706 700L707 701L706 700z"/>
<path style="fill:#f4a2a9; stroke:none;" d="M805 700L806 701L805 700z"/>
<path style="fill:#ec5f69; stroke:none;" d="M439 701L440 702L439 701z"/>
<path style="fill:#f4a2a9; stroke:none;" d="M507 701L508 702L507 701M705 701L706 702L705 701M881 701L882 702L881 701z"/>
<path style="fill:#ffffff; stroke:none;" d="M15 702L16 703L15 702z"/>
<path style="fill:#ec5f69; stroke:none;" d="M507 702L508 703L507 702z"/>
<path style="fill:#f4a2a9; stroke:none;" d="M638 702L639 703L638 702z"/>
<path style="fill:#ec5f69; stroke:none;" d="M705 702L706 703L705 702z"/>
<path style="fill:#f4a2a9; stroke:none;" d="M806 702L807 703L806 702z"/>
<path style="fill:#ffffff; stroke:none;" d="M1120 702L1121 703L1120 702z"/>
<path style="fill:#ec5f69; stroke:none;" d="M440 703L441 704L440 703z"/>
<path style="fill:#f4a2a9; stroke:none;" d="M506 703L507 704L506 703z"/>
<path style="fill:#ec5f69; stroke:none;" d="M880 703L881 704L880 703M262 704L262 707L263 707L262 704M339 704L339 708L340 708L339 704M506 704L507 705L506 704z"/>
<path style="fill:#f4a2a9; stroke:none;" d="M639 704L640 705L639 704z"/>
<path style="fill:#ec5f69; stroke:none;" d="M704 704L705 705L704 704M807 704L808 705L807 704z"/>
<path style="fill:#f4a2a9; stroke:none;" d="M879 704L880 705L879 704z"/>
<path style="fill:#ec5f69; stroke:none;" d="M441 705L442 706L441 705z"/>
<path style="fill:#f4a2a9; stroke:none;" d="M505 705L506 706L505 705M703 705L704 706L703 705M808 705L809 706L808 705z"/>
<path style="fill:#ec5f69; stroke:none;" d="M16 706L17 707L16 706z"/>
<path style="fill:#f4a2a9; stroke:none;" d="M442 706L443 707L442 706z"/>
<path style="fill:#ec5f69; stroke:none;" d="M640 706L641 707L640 706z"/>
<path style="fill:#f4a2a9; stroke:none;" d="M809 706L810 707L809 706z"/>
<path style="fill:#ec5f69; stroke:none;" d="M878 706L879 707L878 706M1119 706L1120 707L1119 706z"/>
<path style="fill:#f4a2a9; stroke:none;" d="M262 707L262 711L263 711L262 707z"/>
<path style="fill:#ec5f69; stroke:none;" d="M504 707L505 708L504 707z"/>
<path style="fill:#f4a2a9; stroke:none;" d="M641 707L642 708L641 707M702 707L703 708L702 707z"/>
<path style="fill:#ec5f69; stroke:none;" d="M877 707L878 708L877 707z"/>
<path style="fill:#f4a2a9; stroke:none;" d="M339 708L339 713L340 713L339 708z"/>
<path style="fill:#ec5f69; stroke:none;" d="M443 708L444 709L443 708z"/>
<path style="fill:#f4a2a9; stroke:none;" d="M503 708L504 709L503 708z"/>
<path style="fill:#ec5f69; stroke:none;" d="M810 708L811 709L810 708z"/>
<path style="fill:#f4a2a9; stroke:none;" d="M876 708L877 709L876 708z"/>
<path style="fill:#ec5f69; stroke:none;" d="M444 709L445 710L444 709M642 709L643 710L642 709M811 709L812 710L811 709z"/>
<path style="fill:#f4a2a9; stroke:none;" d="M875 709L876 710L875 709M445 710L446 711L445 710z"/>
<path style="fill:#ec5f69; stroke:none;" d="M643 710L644 711L643 710M700 710L701 711L700 710z"/>
<path style="fill:#f4a2a9; stroke:none;" d="M874 710L875 711L874 710M446 711L447 712L446 711z"/>
<path style="fill:#ec5f69; stroke:none;" d="M501 711L502 712L501 711z"/>
<path style="fill:#f4a2a9; stroke:none;" d="M644 711L645 712L644 711z"/>
<path style="fill:#ec5f69; stroke:none;" d="M699 711L700 712L699 711z"/>
<path style="fill:#f4a2a9; stroke:none;" d="M873 711L874 712L873 711M447 712L448 713L447 712z"/>
<path style="fill:#ec5f69; stroke:none;" d="M500 712L501 713L500 712z"/>
<path style="fill:#f4a2a9; stroke:none;" d="M645 712L646 713L645 712z"/>
<path style="fill:#ec5f69; stroke:none;" d="M698 712L699 713L698 712z"/>
<path style="fill:#f4a2a9; stroke:none;" d="M815 712L816 713L815 712z"/>
<path style="fill:#ec5f69; stroke:none;" d="M872 712L873 713L872 712z"/>
<path style="fill:#f4a2a9; stroke:none;" d="M448 713L449 714L448 713z"/>
<path style="fill:#ec5f69; stroke:none;" d="M499 713L500 714L499 713z"/>
<path style="fill:#f4a2a9; stroke:none;" d="M646 713L647 714L646 713z"/>
<path style="fill:#ec5f69; stroke:none;" d="M697 713L698 714L697 713z"/>
<path style="fill:#f4a2a9; stroke:none;" d="M816 713L817 714L816 713z"/>
<path style="fill:#ec5f69; stroke:none;" d="M871 713L872 714L871 713z"/>
<path style="fill:#f4a2a9; stroke:none;" d="M449 714L450 715L449 714z"/>
<path style="fill:#ec5f69; stroke:none;" d="M498 714L499 715L498 714M647 714L648 715L647 714M696 714L697 715L696 714M817 714L818 715L817 714z"/>
<path style="fill:#f4a2a9; stroke:none;" d="M869 714L870 715L869 714M450 715L451 716L450 715M496 715L497 716L496 715z"/>
<path style="fill:#ec5f69; stroke:none;" d="M648 715L649 716L648 715M695 715L696 716L695 715z"/>
<path style="fill:#f4a2a9; stroke:none;" d="M819 715L820 716L819 715z"/>
<path style="fill:#ec5f69; stroke:none;" d="M868 715L869 716L868 715M261 716L261 719L262 719L261 716M451 716L452 717L451 716z"/>
<path style="fill:#f4a2a9; stroke:none;" d="M495 716L496 717L495 716M650 716L651 717L650 716M693 716L694 717L693 716z"/>
<path style="fill:#ec5f69; stroke:none;" d="M820 716L821 717L820 716z"/>
<path style="fill:#f4a2a9; stroke:none;" d="M866 716L867 717L866 716M453 717L454 718L453 717z"/>
<path style="fill:#ec5f69; stroke:none;" d="M494 717L495 718L494 717M651 717L652 718L651 717M692 717L693 718L692 717M822 717L823 718L822 717z"/>
<path style="fill:#f4a2a9; stroke:none;" d="M864 717L865 718L864 717z"/>
<path style="fill:#ec5f69; stroke:none;" d="M340 718L340 723L341 723L340 718M454 718L455 719L454 718M492 718L493 719L492 718z"/>
<path style="fill:#f4a2a9; stroke:none;" d="M653 718L654 719L653 718M690 718L691 719L690 718z"/>
<path style="fill:#ec5f69; stroke:none;" d="M824 718L825 719L824 718z"/>
<path style="fill:#f4a2a9; stroke:none;" d="M862 718L863 719L862 718z"/>
<path style="fill:#ec5f69; stroke:none;" d="M863 718L864 719L863 718z"/>
<path style="fill:#f4a2a9; stroke:none;" d="M261 719L261 723L262 723L261 719z"/>
<path style="fill:#ec5f69; stroke:none;" d="M456 719L457 720L456 719M490 719L491 720L490 719M654 719L655 720L654 719z"/>
<path style="fill:#f4a2a9; stroke:none;" d="M655 719L656 720L655 719M688 719L689 720L688 719z"/>
<path style="fill:#ec5f69; stroke:none;" d="M689 719L690 720L689 719M826 719L827 720L826 719z"/>
<path style="fill:#f4a2a9; stroke:none;" d="M827 719L828 720L827 719M860 719L861 720L860 719z"/>
<path style="fill:#ec5f69; stroke:none;" d="M458 720L459 721L458 720z"/>
<path style="fill:#f4a2a9; stroke:none;" d="M459 720L460 721L459 720M487 720L488 721L487 720z"/>
<path style="fill:#ec5f69; stroke:none;" d="M488 720L489 721L488 720M656 720L657 721L656 720z"/>
<path style="fill:#f4a2a9; stroke:none;" d="M657 720L658 721L657 720M686 720L687 721L686 720z"/>
<path style="fill:#ec5f69; stroke:none;" d="M687 720L688 721L687 720M829 720L830 721L829 720z"/>
<path style="fill:#f4a2a9; stroke:none;" d="M830 720L831 721L830 720M857 720L858 721L857 720z"/>
<path style="fill:#ec5f69; stroke:none;" d="M858 720L859 721L858 720M461 721L462 722L461 721z"/>
<path style="fill:#f4a2a9; stroke:none;" d="M462 721L463 722L462 721M484 721L485 722L484 721z"/>
<path style="fill:#ec5f69; stroke:none;" d="M485 721L486 722L485 721M659 721L660 722L659 721z"/>
<path style="fill:#f4a2a9; stroke:none;" d="M660 721L661 722L660 721M683 721L684 722L683 721z"/>
<path style="fill:#ec5f69; stroke:none;" d="M684 721L685 722L684 721M832.667 721.333L833.333 721.667L832.667 721.333z"/>
<path style="fill:#f4a2a9; stroke:none;" d="M834 721L835 722L834 721M853 721L854 722L853 721z"/>
<path style="fill:#ec5f69; stroke:none;" d="M854.667 721.333L855.333 721.667L854.667 721.333M464 722L465 723L464 722z"/>
<path style="fill:#f4a2a9; stroke:none;" d="M465 722L465 723L468 723L465 722M479.667 722.333L480.333 722.667L479.667 722.333z"/>
<path style="fill:#ec5f69; stroke:none;" d="M481.667 722.333L482.333 722.667L481.667 722.333M663 722L664 723L663 722z"/>
<path style="fill:#f4a2a9; stroke:none;" d="M664.667 722.333L665.333 722.667L664.667 722.333M678.667 722.333L679.333 722.667L678.667 722.333z"/>
<path style="fill:#ec5f69; stroke:none;" d="M680 722L681 723L680 722M838.667 722.333L839.333 722.667L838.667 722.333z"/>
<path style="fill:#f4a2a9; stroke:none;" d="M840 722L840 723L848 723L840 722z"/>
<path style="fill:#ec5f69; stroke:none;" d="M848.667 722.333L849.333 722.667L848.667 722.333z"/>
<path style="fill:#f4a2a9; stroke:none;" d="M340 723L340 727L341 727L340 723z"/>
<path style="fill:#ec5f69; stroke:none;" d="M473 723L474 724L473 723M260 727L260 730L261 730L260 727z"/>
<path style="fill:#f4a2a9; stroke:none;" d="M260 730L260 734L261 734L260 730z"/>
<path style="fill:#ec5f69; stroke:none;" d="M341 733L341 738L342 738L341 733M25 738L26 739L25 738z"/>
<path style="fill:#f4a2a9; stroke:none;" d="M341 738L341 743L342 743L341 738z"/>
<path style="fill:#ec5f69; stroke:none;" d="M1110 738L1111 739L1110 738M259 739L259 742L260 742L259 739z"/>
<path style="fill:#f4a2a9; stroke:none;" d="M259 742L259 746L260 746L259 742z"/>
<path style="fill:#ec5f69; stroke:none;" d="M342 750L342 755L343 755L342 750M258 752L258 758L259 758L258 752z"/>
<path style="fill:#f4a2a9; stroke:none;" d="M342 755L342 762L343 762L342 755z"/>
<path style="fill:#ec5f69; stroke:none;" d="M31 756L32 757L31 756M1104 756L1105 757L1104 756z"/>
<path style="fill:#f4a2a9; stroke:none;" d="M258 758L258 770L259 770L258 758z"/>
<path style="fill:#ec5f69; stroke:none;" d="M343 770L343 778L344 778L343 770z"/>
<path style="fill:#f4a2a9; stroke:none;" d="M258 773L258 784L259 784L258 773M38 775L39 776L38 775M1097 775L1098 776L1097 775M343 778L343 792L344 792L343 778z"/>
<path style="fill:#ffffff; stroke:none;" d="M40 780L41 781L40 780M1095 780L1096 781L1095 780z"/>
<path style="fill:#ec5f69; stroke:none;" d="M258 784L258 788L259 788L258 784z"/>
<path style="fill:#f4a2a9; stroke:none;" d="M45 792L46 793L45 792M259 792L259 795L260 795L259 792z"/>
<path style="fill:#ec5f69; stroke:none;" d="M343 792L343 796L344 796L343 792z"/>
<path style="fill:#f4a2a9; stroke:none;" d="M1090 792L1091 793L1090 792z"/>
<path style="fill:#ec5f69; stroke:none;" d="M259.333 795.667L259.667 796.333L259.333 795.667z"/>
<path style="fill:#f4a2a9; stroke:none;" d="M260.333 799.667L260.667 800.333L260.333 799.667M342.333 799.667L342.667 800.333L342.333 799.667z"/>
<path style="fill:#ec5f69; stroke:none;" d="M260 801L261 802L260 801M342 801L343 802L342 801z"/>
<path style="fill:#f4a2a9; stroke:none;" d="M261.333 804.667L261.667 805.333L261.333 804.667M341 804L342 805L341 804z"/>
<path style="fill:#ec5f69; stroke:none;" d="M341.333 805.667L341.667 806.333L341.333 805.667M261 806L262 807L261 806z"/>
<path style="fill:#f4a2a9; stroke:none;" d="M262.333 808.667L262.667 809.333L262.333 808.667M340 808L341 809L340 808z"/>
<path style="fill:#ec5f69; stroke:none;" d="M340 809L341 810L340 809M262 810L263 811L262 810z"/>
<path style="fill:#f4a2a9; stroke:none;" d="M339 811L340 812L339 811M263 812L264 813L263 812z"/>
<path style="fill:#ec5f69; stroke:none;" d="M263 813L264 814L263 813z"/>
<path style="fill:#f4a2a9; stroke:none;" d="M338 813L339 814L338 813z"/>
<path style="fill:#ec5f69; stroke:none;" d="M55 814L56 815L55 814M338 814L339 815L338 814M1080 814L1081 815L1080 814z"/>
<path style="fill:#f4a2a9; stroke:none;" d="M264 815L265 816L264 815M337 815L338 816L337 815z"/>
<path style="fill:#ec5f69; stroke:none;" d="M56 816L57 817L56 816M337 816L338 817L337 816M1079 816L1080 817L1079 816z"/>
<path style="fill:#f4a2a9; stroke:none;" d="M265 817L266 818L265 817M336 817L337 818L336 817z"/>
<path style="fill:#ec5f69; stroke:none;" d="M57 818L58 819L57 818M265 818L266 819L265 818M1078 818L1079 819L1078 818z"/>
<path style="fill:#f4a2a9; stroke:none;" d="M266 819L267 820L266 819z"/>
<path style="fill:#ec5f69; stroke:none;" d="M335 819L336 820L335 819M58 820L59 821L58 820M266 820L267 821L266 820z"/>
<path style="fill:#f4a2a9; stroke:none;" d="M334 820L335 821L334 820z"/>
<path style="fill:#ec5f69; stroke:none;" d="M1077 820L1078 821L1077 820z"/>
<path style="fill:#f4a2a9; stroke:none;" d="M267 821L268 822L267 821z"/>
<path style="fill:#ec5f69; stroke:none;" d="M59 822L60 823L59 822M267 822L268 823L267 822M333 822L334 823L333 822M1076 822L1077 823L1076 822z"/>
<path style="fill:#f4a2a9; stroke:none;" d="M268 823L269 824L268 823z"/>
<path style="fill:#ec5f69; stroke:none;" d="M332 823L333 824L332 823z"/>
<path style="fill:#f4a2a9; stroke:none;" d="M331 824L332 825L331 824z"/>
<path style="fill:#ec5f69; stroke:none;" d="M269 825L270 826L269 825z"/>
<path style="fill:#f4a2a9; stroke:none;" d="M330 825L331 826L330 825z"/>
<path style="fill:#ec5f69; stroke:none;" d="M270 826L271 827L270 826z"/>
<path style="fill:#f4a2a9; stroke:none;" d="M329 826L330 827L329 826M271 827L272 828L271 827M328 827L329 828L328 827z"/>
<path style="fill:#ec5f69; stroke:none;" d="M62 828L63 829L62 828z"/>
<path style="fill:#f4a2a9; stroke:none;" d="M272 828L273 829L272 828z"/>
<path style="fill:#ec5f69; stroke:none;" d="M327 828L328 829L327 828M1073 828L1074 829L1073 828z"/>
<path style="fill:#f4a2a9; stroke:none;" d="M273 829L274 830L273 829z"/>
<path style="fill:#ec5f69; stroke:none;" d="M274 830L275 831L274 830z"/>
<path style="fill:#f4a2a9; stroke:none;" d="M324 830L325 831L324 830z"/>
<path style="fill:#ec5f69; stroke:none;" d="M275 831L276 832L275 831M323 831L324 832L323 831z"/>
<path style="fill:#f4a2a9; stroke:none;" d="M277 832L278 833L277 832z"/>
<path style="fill:#ec5f69; stroke:none;" d="M321 832L322 833L321 832z"/>
<path style="fill:#f4a2a9; stroke:none;" d="M279 833L280 834L279 833z"/>
<path style="fill:#ec5f69; stroke:none;" d="M319 833L320 834L319 833z"/>
<path style="fill:#f4a2a9; stroke:none;" d="M281 834L282 835L281 834M316 834L317 835L316 834z"/>
<path style="fill:#ec5f69; stroke:none;" d="M317 834L318 835L317 834M283 835L284 836L283 835z"/>
<path style="fill:#f4a2a9; stroke:none;" d="M284 835L285 836L284 835M313 835L314 836L313 835z"/>
<path style="fill:#ec5f69; stroke:none;" d="M314 835L315 836L314 835M286 836L287 837L286 836z"/>
<path style="fill:#f4a2a9; stroke:none;" d="M287.667 836.333L288.333 836.667L287.667 836.333M309.667 836.333L310.333 836.667L309.667 836.333z"/>
<path style="fill:#ec5f69; stroke:none;" d="M311 836L312 837L311 836M291.667 837.333L292.333 837.667L291.667 837.333z"/>
<path style="fill:#f4a2a9; stroke:none;" d="M293 837L293 838L305 838L293 837z"/>
<path style="fill:#ec5f69; stroke:none;" d="M305.667 837.333L306.333 837.667L305.667 837.333z"/>
<path style="fill:#ffffff; stroke:none;" d="M81 862L82 863L81 862M1054 862L1055 863L1054 862z"/>
<path style="fill:#f4a2a9; stroke:none;" d="M86 870L87 871L86 870M1049 870L1050 871L1049 870z"/>
<path style="fill:#ec5f69; stroke:none;" d="M102 894L103 895L102 894M1033 894L1034 895L1033 894M107 901L108 902L107 901M1028 901L1029 902L1028 901M119 917L120 918L119 917M1016 917L1017 918L1016 917M123 922L124 923L123 922M1012 922L1013 923L1012 922M127 927L128 928L127 927M1008 927L1009 928L1008 927M132 933L133 934L132 933M1003 933L1004 934L1003 933z"/>
<path style="fill:#ffffff; stroke:none;" d="M137 939L138 940L137 939M998 939L999 940L998 939z"/>
<path style="fill:#f4a2a9; stroke:none;" d="M145 948L146 949L145 948M990 948L991 949L990 948z"/>
<path style="fill:#ffffff; stroke:none;" d="M162 966L163 967L162 966M973 966L974 967L973 966z"/>
<path style="fill:#ec5f69; stroke:none;" d="M163 967L164 968L163 967M972 967L973 968L972 967M168 972L169 973L168 972M967 972L968 973L967 972z"/>
<path style="fill:#ffffff; stroke:none;" d="M169 973L170 974L169 973M966 973L967 974L966 973z"/>
<path style="fill:#f4a2a9; stroke:none;" d="M187 990L188 991L187 990M948 990L949 991L948 990z"/>
<path style="fill:#ffffff; stroke:none;" d="M196 998L197 999L196 998M939 998L940 999L939 998z"/>
<path style="fill:#ec5f69; stroke:none;" d="M202 1003L203 1004L202 1003M933 1003L934 1004L933 1003M208 1008L209 1009L208 1008M927 1008L928 1009L927 1008M213 1012L214 1013L213 1012M922 1012L923 1013L922 1012M218 1016L219 1017L218 1016M917 1016L918 1017L917 1016M234 1028L235 1029L234 1028M901 1028L902 1029L901 1028M241 1033L242 1034L241 1033M894 1033L895 1034L894 1033z"/>
<path style="fill:#f4a2a9; stroke:none;" d="M265 1049L266 1050L265 1049M870 1049L871 1050L870 1049z"/>
<path style="fill:#ffffff; stroke:none;" d="M273 1054L274 1055L273 1054M862 1054L863 1055L862 1054z"/>
<path style="fill:#ec5f69; stroke:none;" d="M307 1073L308 1074L307 1073M828 1073L829 1074L828 1073M313 1076L314 1077L313 1076M822 1076L823 1077L822 1076M315 1077L316 1078L315 1077M820 1077L821 1078L820 1077M317 1078L318 1079L317 1078M818 1078L819 1079L818 1078M319 1079L320 1080L319 1079M816 1079L817 1080L816 1079M321 1080L322 1081L321 1080M814 1080L815 1081L814 1080z"/>
<path style="fill:#f4a2a9; stroke:none;" d="M343 1090L344 1091L343 1090M792 1090L793 1091L792 1090z"/>
<path style="fill:#ffffff; stroke:none;" d="M355 1095L356 1096L355 1095M780 1095L781 1096L780 1095z"/>
<path style="fill:#f4a2a9; stroke:none;" d="M360 1097L361 1098L360 1097M775 1097L776 1098L775 1097z"/>
<path style="fill:#ec5f69; stroke:none;" d="M379 1104L380 1105L379 1104M756 1104L757 1105L756 1104M397 1110L398 1111L397 1110M738 1110L739 1111L738 1110M429 1119L430 1120L429 1119M706 1119L707 1120L706 1119z"/>
<path style="fill:#ffffff; stroke:none;" d="M433 1120L434 1121L433 1120M702 1120L703 1121L702 1120z"/>
<path style="fill:#ec5f69; stroke:none;" d="M461 1126L462 1127L461 1126M674 1126L675 1127L674 1126z"/>
<path style="fill:#ffffff; stroke:none;" d="M466 1127L467 1128L466 1127M669 1127L670 1128L669 1127M472 1128L473 1129L472 1128M663 1128L664 1129L663 1128M478 1129L479 1130L478 1129M657 1129L658 1130L657 1129z"/>
<path style="fill:#ec5f69; stroke:none;" d="M492 1131L493 1132L492 1131M643 1131L644 1132L643 1131z"/>
<path style="fill:#f4a2a9; stroke:none;" d="M500 1132L501 1133L500 1132M635 1132L636 1133L635 1132z"/>
<path style="fill:#ec5f69; stroke:none;" d="M520 1134L521 1135L520 1134M615 1134L616 1135L615 1134z"/>
<path style="fill:#ffffff; stroke:none;" d="M534 1135L535 1136L534 1135M601 1135L602 1136L601 1135z"/>
</svg>
